<svg width="30" height="55" viewBox="0 0 30 55" fill="none" xmlns="http://www.w3.org/2000/svg">
<g filter="url(#filter0_ddddd_6_36)">
<line x1="15.2419" y1="44.125" x2="15.2419" y2="23.125" stroke="white"/>
<path fill-rule="evenodd" clip-rule="evenodd" d="M13.2419 22.4583L12.2419 23.3393H17.2419L16.2419 22.4583C16.2419 22.4583 16.2419 22.125 17.2419 21.5774L17.1419 20.6964H19.2419L16.7419 17.1726L16.2419 12.7679C16.2419 12.7679 15.2419 10.125 14.7419 10.125C14.2419 10.125 13.2419 12.7679 13.2419 12.7679L12.7419 17.1726L10.2419 20.6964H12.3419L12.2419 21.5774C13.2419 22.125 13.2419 22.4583 13.2419 22.4583ZM14.7419 15.125C14.1897 15.125 13.7419 14.6773 13.7419 14.125C13.7419 13.5727 14.1897 13.125 14.7419 13.125C15.2942 13.125 15.7419 13.5727 15.7419 14.125C15.7419 14.6773 15.2942 15.125 14.7419 15.125Z" fill="white" stroke="white" stroke-width="0.25"/>
</g>
<defs>
<filter id="filter0_ddddd_6_36" x="0" y="0" width="29.4839" height="54.125" filterUnits="userSpaceOnUse" color-interpolation-filters="sRGB">
<feFlood flood-opacity="0" result="BackgroundImageFix"/>
<feColorMatrix in="SourceAlpha" type="matrix" values="0 0 0 0 0 0 0 0 0 0 0 0 0 0 0 0 0 0 127 0" result="hardAlpha"/>
<feOffset/>
<feGaussianBlur stdDeviation="1.5"/>
<feColorMatrix type="matrix" values="0 0 0 0 0.153498 0 0 0 0 0.657388 0 0 0 0 0.993315 0 0 0 0.99 0"/>
<feBlend mode="normal" in2="BackgroundImageFix" result="effect1_dropShadow_6_36"/>
<feColorMatrix in="SourceAlpha" type="matrix" values="0 0 0 0 0 0 0 0 0 0 0 0 0 0 0 0 0 0 127 0" result="hardAlpha"/>
<feOffset/>
<feGaussianBlur stdDeviation="3"/>
<feColorMatrix type="matrix" values="0 0 0 0 0.152941 0 0 0 0 0.658824 0 0 0 0 0.992157 0 0 0 0.9 0"/>
<feBlend mode="normal" in2="effect1_dropShadow_6_36" result="effect2_dropShadow_6_36"/>
<feColorMatrix in="SourceAlpha" type="matrix" values="0 0 0 0 0 0 0 0 0 0 0 0 0 0 0 0 0 0 127 0" result="hardAlpha"/>
<feOffset/>
<feGaussianBlur stdDeviation="4"/>
<feColorMatrix type="matrix" values="0 0 0 0 0.152941 0 0 0 0 0.658824 0 0 0 0 0.992157 0 0 0 0.65 0"/>
<feBlend mode="normal" in2="effect2_dropShadow_6_36" result="effect3_dropShadow_6_36"/>
<feColorMatrix in="SourceAlpha" type="matrix" values="0 0 0 0 0 0 0 0 0 0 0 0 0 0 0 0 0 0 127 0" result="hardAlpha"/>
<feOffset/>
<feGaussianBlur stdDeviation="4.5"/>
<feColorMatrix type="matrix" values="0 0 0 0 0.152941 0 0 0 0 0.658824 0 0 0 0 0.992157 0 0 0 0.25 0"/>
<feBlend mode="normal" in2="effect3_dropShadow_6_36" result="effect4_dropShadow_6_36"/>
<feColorMatrix in="SourceAlpha" type="matrix" values="0 0 0 0 0 0 0 0 0 0 0 0 0 0 0 0 0 0 127 0" result="hardAlpha"/>
<feOffset/>
<feGaussianBlur stdDeviation="5"/>
<feColorMatrix type="matrix" values="0 0 0 0 0.152941 0 0 0 0 0.658824 0 0 0 0 0.992157 0 0 0 0.15 0"/>
<feBlend mode="normal" in2="effect4_dropShadow_6_36" result="effect5_dropShadow_6_36"/>
<feBlend mode="normal" in="SourceGraphic" in2="effect5_dropShadow_6_36" result="shape"/>
</filter>
</defs>
</svg>
