<svg width="52" height="52" viewBox="0 0 52 52" fill="none" xmlns="http://www.w3.org/2000/svg">
<g filter="url(#filter0_ddddd_147_50)">
<path d="M11 18.1438L24.5 15.6437L18.5 22.5813M10.5 32.1437L18.5 22.5813M18.5 22.5813V40.6437M18.5 22.5813L25 26.334M20.5 13.6437L13.5 11.7681M27.5 12.6437L35.5 10.5001M32.5 28.1437C32.5 28.1437 38.5 27.1437 40.5 28.1437C41.5 30.1437 41.5 37.6437 40.5 39.6437C38.5 40.6437 32.5 39.6437 32.5 39.6437M32.5 28.1437C32.5 28.1437 26.5 27.1437 24.5 28.1437C23.5 30.1437 23.5 37.6437 24.5 39.6437C26.5 40.6437 32.5 39.6437 32.5 39.6437M32.5 28.1437V33.8937M32.5 39.6437V33.8937M32.5 33.8937H27.5M32.5 33.8937H36.5M26.5 16.6437C28.5 15.6437 34.5 15.6437 36.5 16.6437C37.5 18.6437 37.5 20.6437 36.5 22.5813C34.5 23.6437 28.5 23.6437 26.5 22.5813C25.5 20.6437 25.5 18.6437 26.5 16.6437Z" stroke="white" stroke-linecap="round"/>
</g>
<defs>
<filter id="filter0_ddddd_147_50" x="0" y="0" width="51.75" height="51.1437" filterUnits="userSpaceOnUse" color-interpolation-filters="sRGB">
<feFlood flood-opacity="0" result="BackgroundImageFix"/>
<feColorMatrix in="SourceAlpha" type="matrix" values="0 0 0 0 0 0 0 0 0 0 0 0 0 0 0 0 0 0 127 0" result="hardAlpha"/>
<feOffset/>
<feGaussianBlur stdDeviation="1.5"/>
<feColorMatrix type="matrix" values="0 0 0 0 0.933333 0 0 0 0 0.462745 0 0 0 0 0.192157 0 0 0 1 0"/>
<feBlend mode="normal" in2="BackgroundImageFix" result="effect1_dropShadow_147_50"/>
<feColorMatrix in="SourceAlpha" type="matrix" values="0 0 0 0 0 0 0 0 0 0 0 0 0 0 0 0 0 0 127 0" result="hardAlpha"/>
<feOffset/>
<feGaussianBlur stdDeviation="3"/>
<feColorMatrix type="matrix" values="0 0 0 0 0.933333 0 0 0 0 0.462745 0 0 0 0 0.192157 0 0 0 0.9 0"/>
<feBlend mode="normal" in2="effect1_dropShadow_147_50" result="effect2_dropShadow_147_50"/>
<feColorMatrix in="SourceAlpha" type="matrix" values="0 0 0 0 0 0 0 0 0 0 0 0 0 0 0 0 0 0 127 0" result="hardAlpha"/>
<feOffset/>
<feGaussianBlur stdDeviation="4"/>
<feColorMatrix type="matrix" values="0 0 0 0 0.933333 0 0 0 0 0.462745 0 0 0 0 0.192157 0 0 0 0.65 0"/>
<feBlend mode="normal" in2="effect2_dropShadow_147_50" result="effect3_dropShadow_147_50"/>
<feColorMatrix in="SourceAlpha" type="matrix" values="0 0 0 0 0 0 0 0 0 0 0 0 0 0 0 0 0 0 127 0" result="hardAlpha"/>
<feOffset/>
<feGaussianBlur stdDeviation="4.5"/>
<feColorMatrix type="matrix" values="0 0 0 0 0.933333 0 0 0 0 0.462745 0 0 0 0 0.192157 0 0 0 0.25 0"/>
<feBlend mode="normal" in2="effect3_dropShadow_147_50" result="effect4_dropShadow_147_50"/>
<feColorMatrix in="SourceAlpha" type="matrix" values="0 0 0 0 0 0 0 0 0 0 0 0 0 0 0 0 0 0 127 0" result="hardAlpha"/>
<feOffset/>
<feGaussianBlur stdDeviation="5"/>
<feColorMatrix type="matrix" values="0 0 0 0 0.933333 0 0 0 0 0.462745 0 0 0 0 0.192157 0 0 0 0.15 0"/>
<feBlend mode="normal" in2="effect4_dropShadow_147_50" result="effect5_dropShadow_147_50"/>
<feBlend mode="normal" in="SourceGraphic" in2="effect5_dropShadow_147_50" result="shape"/>
</filter>
</defs>
</svg>
